# Blender v2.92.0 OBJ File: ''
# www.blender.org
mtllib weird_tree.mtl
o Cube_Cube.001
v -0.730629 -1.000000 1.000000
v -0.279299 1.109083 0.469148
v -0.311759 -1.000000 -1.000000
v -0.291665 0.871342 -0.541492
v 0.432037 -1.000000 1.000000
v 0.409150 1.146200 0.631490
v 0.494534 -1.000000 -1.000000
v 0.514103 0.876807 -0.512914
v -1.000000 -1.000000 0.000000
v -0.575906 0.993617 -0.023628
v 1.098686 -1.000000 0.000000
v 0.800434 1.002952 0.025185
v -0.641646 3.336389 -0.801236
v -0.643071 3.029937 -1.793280
v 0.045006 3.385339 -0.634481
v 0.162342 3.038277 -1.756546
v -0.932902 3.187084 -1.288078
v 0.442832 3.201331 -1.225332
v -1.100434 6.255311 -1.066156
v -1.139711 6.734014 -1.818356
v -0.461091 6.232205 -1.080179
v -0.372821 6.659237 -2.055833
v -1.446484 6.461384 -1.492676
v 0.007645 6.419338 -1.615432
v -1.303705 8.038868 0.859616
v -1.454098 8.099785 -0.132569
v -0.607028 7.987627 0.976708
v -0.653286 8.036561 -0.201916
v -0.982755 8.124041 0.402726
v -0.271070 8.014450 0.359713
v -1.337609 9.705686 -0.850702
v -1.036851 9.629826 -0.740370
v -1.173247 9.867976 -0.394132
v -0.797384 9.840079 -0.205674
v -1.793202 9.442231 -2.489995
v -1.420533 9.564162 -2.188031
v -1.784810 9.790942 -2.043959
v -1.357362 9.934108 -1.945415
v -3.419092 10.185417 -3.244204
v -3.123214 10.110291 -3.344972
v -3.222612 9.980793 -2.823886
v -3.134027 10.508174 -3.141783
v -2.177086 8.789427 1.367853
v -1.506053 8.563002 1.355944
v -1.824851 9.116919 1.071726
v -1.141477 8.958707 0.903425
v -1.136156 9.291695 3.367074
v -0.571702 9.702146 3.150650
v -1.089281 9.851541 3.215802
v -0.668436 10.064607 2.894738
v -0.376263 8.807955 4.620584
v -0.095068 8.958055 4.463147
v -0.411274 9.059566 4.598451
v -0.172646 9.257229 4.395098
v -1.473585 9.507755 2.169683
v -0.948966 9.546269 1.871793
v -1.038878 9.132574 2.253297
v -1.656621 9.040561 2.367463
v -1.229053 9.630749 2.698775
v -0.805290 9.417360 2.701973
v -0.770289 9.767132 2.379288
v -1.396388 9.166128 2.867269
v -2.490951 10.509692 2.128580
v -2.076033 10.420523 1.921690
v -2.223885 10.716666 2.357438
v -1.859001 10.713738 2.093239
v -2.194885 11.165143 1.013925
v -2.088478 11.481389 0.789647
v -2.103287 11.422213 1.263524
v -2.019529 11.463690 0.995598
v -3.753639 11.636287 -0.422269
v -3.789338 11.613284 -0.669365
v -3.632063 11.704860 -0.181556
v -3.638189 11.769835 -0.439064
v -0.272171 8.947837 5.753912
v -0.103984 9.004990 5.705706
v -0.285017 9.049916 5.717103
v -0.130724 9.123784 5.632731
v -1.143317 5.996768 -1.956751
v -0.372539 5.917726 -2.176826
v -1.007759 5.665689 -1.012642
v -1.342741 5.799975 -1.451347
v 0.093734 5.784861 -1.407134
v -0.389044 5.687567 -0.893082
v -1.994251 6.882422 -3.227798
v -1.817230 6.790247 -3.501358
v -2.116264 6.557900 -3.176658
v -1.936795 6.460867 -3.451517
v -3.294517 7.590668 -3.233522
v -3.325937 7.555824 -3.547999
v -3.387293 7.540616 -3.145099
v -3.419069 7.504494 -3.461654
v 1.346050 6.260690 -0.011814
v 1.229615 5.785342 -0.561101
v 1.711629 5.578728 -0.138806
v 1.763687 6.090380 0.353425
v 3.096723 6.886119 0.386626
v 2.885083 6.707702 0.294092
v 3.146640 6.581221 0.285903
v 3.323411 6.780021 0.378882
v 3.797797 7.241652 -0.339562
v 3.704176 7.152469 -0.370869
v 3.828567 7.107872 -0.387707
v 3.905807 7.205055 -0.355224
v -4.433494 8.102607 -2.397496
v -4.485252 8.062290 -2.454885
v -4.476462 8.063532 -2.377174
v -4.528719 8.021792 -2.434927
vt 0.375000 0.125000
vt 0.625000 0.250000
vt 0.375000 0.250000
vt 0.375000 0.500000
vt 0.625000 0.625000
vt 0.375000 0.750000
vt 0.375000 0.625000
vt 0.625000 1.000000
vt 0.375000 1.000000
vt 0.125000 0.625000
vt 0.125000 0.750000
vt 0.625000 0.500000
vt 0.625000 0.625000
vt 0.625000 0.750000
vt 0.625000 0.750000
vt 0.125000 0.500000
vt 0.375000 0.000000
vt 0.625000 0.125000
vt 0.625000 0.125000
vt 0.625000 0.000000
vt 0.625000 0.125000
vt 0.625000 0.500000
vt 0.625000 0.500000
vt 0.625000 0.500000
vt 0.625000 0.000000
vt 0.625000 0.125000
vt 0.625000 0.250000
vt 0.625000 1.000000
vt 0.625000 0.500000
vt 0.625000 0.625000
vt 0.625000 0.500000
vt 0.625000 0.625000
vt 0.625000 0.250000
vt 0.625000 0.250000
vt 0.625000 0.625000
vt 0.625000 0.625000
vt 0.625000 0.625000
vt 0.625000 0.250000
vt 0.625000 0.500000
vt 0.625000 1.000000
vt 0.625000 0.750000
vt 0.625000 1.000000
vt 0.875000 0.625000
vt 0.625000 0.625000
vt 0.625000 0.625000
vt 0.875000 0.625000
vt 0.625000 0.750000
vt 0.625000 1.000000
vt 0.625000 0.125000
vt 0.625000 0.625000
vt 0.875000 0.625000
vt 0.625000 0.125000
vt 0.625000 0.250000
vt 0.625000 0.500000
vt 0.625000 0.500000
vt 0.625000 0.250000
vt 0.625000 0.500000
vt 0.625000 0.125000
vt 0.625000 0.250000
vt 0.875000 0.625000
vt 0.625000 0.625000
vt 0.625000 0.125000
vt 0.875000 0.625000
vt 0.625000 0.625000
vt 0.625000 0.625000
vt 0.625000 0.000000
vt 0.625000 0.125000
vt 0.625000 0.750000
vt 0.625000 1.000000
vt 0.625000 0.000000
vt 0.625000 0.125000
vt 0.625000 0.125000
vt 0.625000 0.750000
vt 0.625000 1.000000
vt 0.625000 1.000000
vt 0.625000 0.125000
vt 0.625000 0.750000
vt 0.625000 0.000000
vt 0.625000 0.125000
vt 0.625000 0.625000
vt 0.625000 0.750000
vt 0.875000 0.625000
vt 0.625000 1.000000
vt 0.625000 0.625000
vt 0.625000 0.750000
vt 0.625000 0.000000
vt 0.625000 0.125000
vt 0.625000 1.000000
vt 0.875000 0.625000
vt 0.625000 0.000000
vt 0.625000 0.625000
vt 0.625000 0.625000
vt 0.625000 0.625000
vt 0.625000 0.125000
vt 0.625000 0.125000
vt 0.875000 0.625000
vt 0.875000 0.625000
vt 0.875000 0.625000
vt 0.875000 0.625000
vt 0.875000 0.625000
vt 0.625000 0.625000
vt 0.625000 0.125000
vt 0.625000 0.125000
vt 0.875000 0.625000
vt 0.625000 0.625000
vt 0.625000 0.625000
vt 0.625000 0.125000
vt 0.625000 0.125000
vt 0.875000 0.625000
vt 0.625000 0.750000
vt 0.625000 0.625000
vt 0.875000 0.625000
vt 0.625000 1.000000
vt 0.625000 0.750000
vt 0.625000 0.000000
vt 0.625000 0.250000
vt 0.625000 0.250000
vt 0.625000 0.250000
vt 0.625000 0.250000
vt 0.625000 0.500000
vt 0.625000 0.500000
vt 0.625000 0.500000
vt 0.625000 0.750000
vt 0.625000 0.750000
vt 0.625000 0.750000
vt 0.625000 0.750000
vt 0.625000 0.625000
vt 0.625000 0.750000
vt 0.625000 0.625000
vt 0.625000 0.625000
vt 0.625000 0.750000
vt 0.625000 0.625000
vt 0.625000 0.250000
vt 0.625000 0.500000
vt 0.625000 0.250000
vt 0.625000 0.000000
vt 0.875000 0.500000
vt 0.625000 0.000000
vt 0.625000 0.000000
vt 0.875000 0.625000
vt 0.875000 0.750000
vn -0.8149 0.1462 -0.5609
vn 0.0000 0.2380 -0.9713
vn 0.8264 0.1161 0.5509
vn 0.0000 0.2441 0.9698
vn 0.0000 -1.0000 0.0000
vn 0.8879 -0.1097 -0.4468
vn 0.8156 0.3795 0.4367
vn 0.8493 0.1243 -0.5131
vn -0.9453 0.2041 0.2546
vn -0.7937 -0.0869 0.6020
vn 0.6500 -0.3389 -0.6802
vn -0.8680 0.1343 0.4781
vn -0.8536 -0.3583 -0.3782
vn -0.2409 0.4510 0.8594
vn 0.0342 -0.4942 -0.8687
vn 0.6518 0.6323 -0.4187
vn -0.8106 0.3718 -0.4524
vn 0.5802 -0.2383 -0.7788
vn -0.7712 0.1211 -0.6250
vn 0.8495 -0.0569 -0.5245
vn 0.0252 0.0943 0.9952
vn 0.0281 0.5181 -0.8548
vn -0.4003 0.3443 0.8493
vn -0.1649 -0.7322 0.6608
vn -0.1098 0.7898 -0.6034
vn -0.8043 -0.3351 0.4907
vn 0.8030 -0.4240 0.4188
vn -0.3330 0.9396 0.0796
vn -0.9433 0.1901 0.2720
vn 0.8262 0.0648 -0.5597
vn -0.1078 -0.3415 -0.9337
vn -0.2657 -0.9620 -0.0630
vn -0.2834 -0.9517 0.1183
vn 0.9156 -0.2579 -0.3086
vn -0.8794 -0.3669 0.3034
vn -0.9831 0.0613 -0.1723
vn 0.5983 0.3655 -0.7131
vn -0.2686 -0.9095 -0.3172
vn -0.3508 0.5260 0.7748
vn -0.4881 0.7942 -0.3619
vn -0.7680 -0.2557 -0.5872
vn 0.5483 0.3588 0.7554
vn -0.2294 -0.7145 0.6610
vn -0.8245 0.2109 0.5251
vn 0.3967 -0.9176 0.0240
vn -0.9695 0.1363 0.2039
vn 0.9010 -0.0626 -0.4293
vn -0.9857 -0.1275 0.1102
vn 0.9523 0.1932 -0.2363
vn -0.0665 0.8693 0.4898
vn 0.2052 -0.8649 -0.4581
vn 0.8938 -0.3932 -0.2157
vn -0.6953 0.7179 -0.0331
vn -0.2907 -0.8812 0.3728
vn 0.0663 0.8472 -0.5272
vn 0.9064 -0.3318 -0.2613
vn -0.8579 0.4176 0.2994
vn 0.1734 -0.9727 0.1541
vn 0.6430 0.5931 -0.4845
vn 0.8346 -0.3903 -0.3887
vn -0.4112 -0.3837 0.8269
vn 0.4624 0.6222 0.6317
vn -0.4064 -0.4795 -0.7777
vn 0.0294 0.9864 0.1619
vn 0.3892 0.7540 0.5292
vn 0.5773 -0.5926 -0.5617
vn -0.9308 0.3639 -0.0332
vn -0.7527 0.6567 0.0476
vn -0.1756 -0.9776 0.1164
vn -0.6329 -0.5992 0.4903
vn 0.1585 0.9868 0.0317
vn 0.1866 0.5444 0.8178
vn 0.9758 0.2189 -0.0013
vn -0.5787 0.8085 0.1068
vn 0.3421 -0.9359 0.0841
vn -0.1914 0.0588 0.9797
vn 0.8704 0.0835 -0.4852
vn -0.8912 -0.1734 -0.4192
vn 0.6930 0.2082 0.6902
vn 0.0465 -0.1358 -0.9896
vn -0.8046 -0.0895 0.5870
vn 0.4229 0.5232 0.7399
vn -0.1600 -0.9636 -0.2143
vn -0.8007 -0.1067 0.5895
vn 0.3310 0.9381 -0.1019
vn -0.3103 -0.9405 0.1385
vn -0.5731 -0.8149 -0.0866
vn 0.4739 0.8688 -0.1436
vn -0.0383 -0.1359 -0.9900
vn -0.3750 0.5986 0.7079
vn -0.2867 -0.6489 0.7048
vn -0.4988 0.2218 0.8378
vn 0.1118 0.9035 0.4138
vn 0.7319 -0.6500 0.2043
vn -0.0943 0.7626 -0.6400
vn 0.2439 -0.5803 0.7770
vn 0.0984 0.2655 -0.9591
vn -0.0236 0.3337 -0.9424
vn -0.3081 -0.5727 -0.7597
vn 0.3380 0.6743 0.6565
vn -0.5830 0.7900 -0.1898
vn -0.6646 0.7445 0.0633
vn -0.0331 0.8316 -0.5544
vn -0.6833 0.0117 -0.7301
vn 0.5247 -0.1403 0.8397
vn -0.8454 0.1739 -0.5051
vn 0.0326 0.2508 -0.9675
vn 0.8466 0.0988 0.5230
vn -0.2347 0.1621 0.9585
vn 0.8924 -0.1070 -0.4384
vn 0.8180 0.3792 0.4327
vn 0.8614 0.1344 -0.4899
vn -0.8480 0.2927 0.4418
vn -0.8033 -0.0726 0.5911
vn 0.6521 0.1223 -0.7482
vn -0.8625 0.1374 0.4870
vn -0.8513 -0.3591 -0.3825
vn -0.2278 0.4509 0.8630
vn 0.0447 -0.4957 -0.8673
vn 0.7432 0.5860 -0.3229
vn -0.6426 -0.4912 0.5881
vn 0.5877 -0.1793 -0.7890
vn -0.8935 -0.1662 -0.4173
vn 0.7794 0.1012 -0.6183
vn -0.1913 0.2962 0.9358
vn -0.0968 0.4984 -0.8615
vn 0.1064 0.3220 0.9407
vn -0.0133 -0.7610 0.6486
vn 0.0069 0.7776 -0.6287
vn -0.7783 0.4176 -0.4689
vn 0.7391 -0.4692 0.4832
vn 0.0561 0.9978 0.0359
vn -0.7382 0.2120 0.6404
vn 0.8996 0.0710 -0.4308
vn 0.2206 -0.4115 -0.8843
vn 0.5201 0.3451 -0.7813
vn 0.2454 -0.9655 0.0870
vn 0.9666 0.0030 -0.2563
vn -0.9367 -0.0324 0.3487
vn 0.3262 0.9010 0.2861
vn 0.6002 0.3766 -0.7056
vn -0.4030 -0.7173 0.5684
vn -0.3538 0.5222 0.7760
vn -0.5570 0.8075 -0.1942
vn -0.5729 -0.1173 -0.8112
vn 0.7721 0.4582 0.4403
vn -0.1671 -0.7112 0.6829
vn -0.8655 -0.0769 0.4950
vn 0.6205 -0.7669 0.1638
vn -0.8426 0.4239 0.3322
vn 0.9795 -0.1805 -0.0894
vn -0.9909 -0.0880 0.1019
vn 0.9562 0.0518 -0.2881
vn -0.1937 0.8073 0.5574
vn 0.3400 -0.7598 -0.5542
vn 0.8151 -0.5528 0.1733
vn -0.8299 0.4592 0.3167
vn 0.2116 -0.8713 0.4428
vn -0.2190 0.9393 -0.2643
vn 0.9193 -0.3556 -0.1689
vn 0.4434 -0.8431 0.3043
vn 0.2354 0.3551 -0.9047
vn 0.8840 -0.3363 -0.3248
vn -0.7232 -0.5195 0.4550
vn 0.3297 0.5995 0.7293
vn -0.4695 -0.5064 -0.7233
vn -0.0342 0.9689 0.2453
vn 0.7154 0.6212 0.3198
vn -0.4254 -0.7262 -0.5400
vn -0.7338 0.6049 0.3092
vn -0.7322 0.6560 0.1829
vn 0.4262 -0.6143 -0.6641
vn -0.6718 -0.3787 0.6366
vn 0.6131 0.4055 -0.6780
vn 0.1455 0.3518 0.9247
vn 0.9683 0.2498 -0.0059
vn -0.4071 0.9118 0.0538
vn 0.4864 -0.8730 0.0365
vn -0.2398 0.0636 0.9687
vn 0.8586 0.0857 -0.5054
vn -0.8768 -0.1657 -0.4514
vn 0.8411 0.1502 0.5196
vn -0.2827 -0.1002 -0.9540
vn -0.8435 -0.0844 0.5305
vn 0.0669 0.1307 0.9892
vn -0.4889 -0.8723 -0.0113
vn -0.7759 0.3720 0.5096
vn 0.0955 0.9954 -0.0052
vn 0.0147 -0.8167 0.5769
vn -0.6024 -0.7840 0.1499
vn 0.4527 0.8916 -0.0075
vn -0.3832 -0.5514 -0.7411
vn 0.0082 -0.0554 0.9984
vn 0.0119 -0.9845 -0.1752
vn -0.5156 0.3812 0.7674
vn 0.3744 0.6604 -0.6509
vn 0.6985 -0.6970 0.1622
vn 0.0673 0.3953 -0.9161
vn 0.2748 -0.6810 0.6788
vn 0.5602 -0.2838 -0.7782
vn -0.0065 0.3373 -0.9414
vn -0.3027 -0.5769 -0.7587
vn 0.3261 0.6826 0.6540
vn -0.6259 0.7417 -0.2411
vn -0.6553 0.7528 0.0621
vn 0.2880 0.9482 -0.1338
vn -0.5898 0.2555 -0.7661
vn 0.6312 0.1677 0.7572
usemtl None
s off
f 9/1/1 4/2/1 3/3/1
f 4/2/2 7/4/2 3/3/2
f 12/5/3 5/6/3 11/7/3
f 5/6/4 2/8/4 1/9/4
f 9/10/5 5/6/5 1/11/5
f 8/12/6 18/13/6 12/5/6
f 12/5/7 15/14/7 6/15/7
f 3/16/5 11/7/5 9/10/5
f 8/12/8 11/7/8 7/4/8
f 1/17/9 10/18/9 9/1/9
f 82/19/10 19/20/10 23/21/10
f 22/22/11 88/23/11 86/24/11
f 10/18/12 13/25/12 17/26/12
f 4/2/13 17/26/13 14/27/13
f 2/8/14 15/14/14 13/28/14
f 4/2/15 16/29/15 8/12/15
f 24/30/16 28/31/16 30/32/16
f 23/21/17 26/33/17 20/34/17
f 83/35/18 94/36/18 95/37/18
f 79/38/19 23/21/19 20/34/19
f 80/39/20 24/30/20 83/35/20
f 81/40/21 21/41/21 19/42/21
f 29/43/22 46/44/22 30/32/22
f 29/43/23 34/45/23 33/46/23
f 19/42/24 27/47/24 25/48/24
f 20/34/25 28/31/25 22/22/25
f 19/20/26 29/49/26 23/21/26
f 21/41/27 30/32/27 27/47/27
f 33/46/28 38/50/28 37/51/28
f 26/33/29 33/52/29 31/53/29
f 28/31/30 34/45/30 30/32/30
f 26/33/31 32/54/31 28/31/31
f 36/55/32 39/56/32 40/57/32
f 31/53/33 36/55/33 32/54/33
f 32/54/34 38/50/34 34/45/34
f 31/53/35 37/58/35 35/59/35
f 40/57/36 41/60/36 42/61/36
f 36/55/37 42/61/37 38/50/37
f 35/59/38 41/62/38 39/56/38
f 37/51/39 42/61/39 41/60/39
f 59/63/40 50/64/40 61/65/40
f 25/66/41 45/67/41 29/49/41
f 27/47/42 46/44/42 44/68/42
f 25/48/43 44/68/43 43/69/43
f 47/70/44 53/71/44 49/72/44
f 60/73/45 47/74/45 62/75/45
f 59/76/46 47/70/46 49/72/46
f 60/73/47 50/64/47 48/77/47
f 51/78/48 77/79/48 53/71/48
f 48/77/49 54/80/49 52/81/49
f 49/82/50 54/80/50 50/64/50
f 47/74/51 52/81/51 51/83/51
f 44/68/52 56/84/52 57/85/52
f 43/86/53 55/87/53 45/67/53
f 44/68/54 58/88/54 43/69/54
f 45/89/55 56/84/55 46/44/55
f 57/85/56 61/65/56 60/73/56
f 55/87/57 62/90/57 59/76/57
f 57/85/58 62/75/58 58/88/58
f 56/84/59 66/91/59 61/65/59
f 64/92/60 70/93/60 66/91/60
f 55/87/61 65/94/61 63/95/61
f 59/63/62 66/91/62 65/96/62
f 55/97/63 64/92/63 56/84/63
f 70/93/64 73/98/64 69/99/64
f 66/91/65 69/99/65 65/96/65
f 64/92/66 67/100/66 68/101/66
f 63/95/67 69/102/67 67/103/67
f 71/104/68 74/105/68 72/106/68
f 68/101/69 71/104/69 72/106/69
f 67/103/70 73/107/70 71/108/70
f 68/101/71 74/105/71 70/93/71
f 77/109/72 76/110/72 78/111/72
f 52/81/73 78/111/73 76/110/73
f 53/112/74 78/111/74 54/80/74
f 51/83/75 76/110/75 75/113/75
f 13/28/76 84/114/76 81/40/76
f 16/29/77 83/35/77 18/13/77
f 14/27/78 82/19/78 79/38/78
f 15/14/79 83/35/79 84/114/79
f 14/27/80 80/39/80 16/29/80
f 17/26/81 81/115/81 82/19/81
f 87/116/82 89/117/82 91/118/82
f 79/38/83 88/23/83 80/39/83
f 20/34/84 87/116/84 79/38/84
f 20/34/85 86/24/85 85/119/85
f 91/118/86 108/120/86 92/121/86
f 87/116/87 92/121/87 88/23/87
f 85/119/88 90/122/88 89/117/88
f 88/23/89 90/122/89 86/24/89
f 96/123/90 97/124/90 93/125/90
f 84/114/91 95/37/91 96/123/91
f 84/114/92 93/125/92 21/41/92
f 21/41/93 94/36/93 24/30/93
f 100/126/94 103/127/94 104/128/94
f 93/125/95 98/129/95 94/36/95
f 96/123/96 99/130/96 100/126/96
f 95/37/97 98/129/97 99/130/97
f 103/127/98 101/131/98 104/128/98
f 99/130/99 102/132/99 103/127/99
f 100/126/100 101/131/100 97/124/100
f 97/124/101 102/132/101 98/129/101
f 107/133/102 106/134/102 108/120/102
f 89/117/103 106/134/103 105/135/103
f 92/121/104 106/134/104 90/122/104
f 91/118/105 105/135/105 107/133/105
f 9/1/106 10/18/106 4/2/106
f 4/2/107 8/12/107 7/4/107
f 12/5/108 6/15/108 5/6/108
f 5/6/109 6/15/109 2/8/109
f 9/10/5 11/7/5 5/6/5
f 8/12/110 16/29/110 18/13/110
f 12/5/111 18/13/111 15/14/111
f 3/16/5 7/4/5 11/7/5
f 8/12/112 12/5/112 11/7/112
f 1/17/113 2/136/113 10/18/113
f 82/19/114 81/115/114 19/20/114
f 22/22/115 80/39/115 88/23/115
f 10/18/116 2/136/116 13/25/116
f 4/2/117 10/18/117 17/26/117
f 2/8/118 6/15/118 15/14/118
f 4/2/119 14/27/119 16/29/119
f 24/30/120 22/22/120 28/31/120
f 23/21/121 29/49/121 26/33/121
f 83/35/122 24/30/122 94/36/122
f 79/38/123 82/19/123 23/21/123
f 80/39/124 22/22/124 24/30/124
f 81/40/125 84/114/125 21/41/125
f 29/43/126 45/89/126 46/44/126
f 29/43/127 30/32/127 34/45/127
f 19/42/128 21/41/128 27/47/128
f 20/34/129 26/33/129 28/31/129
f 19/20/130 25/66/130 29/49/130
f 21/41/131 24/30/131 30/32/131
f 33/46/132 34/45/132 38/50/132
f 26/33/133 29/49/133 33/52/133
f 28/31/134 32/54/134 34/45/134
f 26/33/135 31/53/135 32/54/135
f 36/55/136 35/59/136 39/56/136
f 31/53/137 35/59/137 36/55/137
f 32/54/138 36/55/138 38/50/138
f 31/53/139 33/52/139 37/58/139
f 40/57/140 39/137/140 41/60/140
f 36/55/141 40/57/141 42/61/141
f 35/59/142 37/58/142 41/62/142
f 37/51/143 38/50/143 42/61/143
f 59/63/144 49/82/144 50/64/144
f 25/66/145 43/86/145 45/67/145
f 27/47/146 30/32/146 46/44/146
f 25/48/147 27/47/147 44/68/147
f 47/70/148 51/78/148 53/71/148
f 60/73/149 48/77/149 47/74/149
f 59/76/150 62/90/150 47/70/150
f 60/73/151 61/65/151 50/64/151
f 51/78/152 75/138/152 77/79/152
f 48/77/153 50/64/153 54/80/153
f 49/82/154 53/112/154 54/80/154
f 47/74/155 48/77/155 52/81/155
f 44/68/156 46/44/156 56/84/156
f 43/86/157 58/139/157 55/87/157
f 44/68/158 57/85/158 58/88/158
f 45/89/159 55/97/159 56/84/159
f 57/85/160 56/84/160 61/65/160
f 55/87/157 58/139/157 62/90/157
f 57/85/161 60/73/161 62/75/161
f 56/84/162 64/92/162 66/91/162
f 64/92/163 68/101/163 70/93/163
f 55/87/164 59/76/164 65/94/164
f 59/63/165 61/65/165 66/91/165
f 55/97/166 63/140/166 64/92/166
f 70/93/167 74/105/167 73/98/167
f 66/91/168 70/93/168 69/99/168
f 64/92/169 63/140/169 67/100/169
f 63/95/170 65/94/170 69/102/170
f 71/104/171 73/98/171 74/105/171
f 68/101/172 67/100/172 71/104/172
f 67/103/173 69/102/173 73/107/173
f 68/101/174 72/106/174 74/105/174
f 77/109/175 75/141/175 76/110/175
f 52/81/176 54/80/176 78/111/176
f 53/112/177 77/109/177 78/111/177
f 51/83/178 52/81/178 76/110/178
f 13/28/179 15/14/179 84/114/179
f 16/29/180 80/39/180 83/35/180
f 14/27/181 17/26/181 82/19/181
f 15/14/182 18/13/182 83/35/182
f 14/27/183 79/38/183 80/39/183
f 17/26/184 13/25/184 81/115/184
f 87/116/185 85/119/185 89/117/185
f 79/38/186 87/116/186 88/23/186
f 20/34/187 85/119/187 87/116/187
f 20/34/188 22/22/188 86/24/188
f 91/118/189 107/133/189 108/120/189
f 87/116/190 91/118/190 92/121/190
f 85/119/191 86/24/191 90/122/191
f 88/23/192 92/121/192 90/122/192
f 96/123/193 100/126/193 97/124/193
f 84/114/194 83/35/194 95/37/194
f 84/114/195 96/123/195 93/125/195
f 21/41/196 93/125/196 94/36/196
f 100/126/197 99/130/197 103/127/197
f 93/125/198 97/124/198 98/129/198
f 96/123/199 95/37/199 99/130/199
f 95/37/200 94/36/200 98/129/200
f 103/127/201 102/132/201 101/131/201
f 99/130/202 98/129/202 102/132/202
f 100/126/203 104/128/203 101/131/203
f 97/124/204 101/131/204 102/132/204
f 107/133/205 105/135/205 106/134/205
f 89/117/206 90/122/206 106/134/206
f 92/121/207 108/120/207 106/134/207
f 91/118/208 89/117/208 105/135/208
